<?xml version="1.0" encoding="UTF-8" standalone="no"?>
<svg
   width="50px"
   height="50px"
   viewBox="0 0 50 50"
   version="1.1"
   xmlns="http://www.w3.org/2000/svg"
   xmlns:svg="http://www.w3.org/2000/svg">
  <g>
    <path
       style="fill:#5a5a5a;stroke-width:0.5;stroke-color:#b3b1b1;"
       d="M 25 0 A 25 25 0 0 0 0 25 A 25 25 0 0 0 25 50 A 25 25 0 0 0 50 25 A 25 25 0 0 0 25 0 z" />
    <path
       style="fill:#edebe0;stroke-width:0"
       d="M 34 9 C 37 9 47 22 38 34 C 27 48 8 37 14 36 C 20 36 25 31 28 28 C 31 25 34 19 33 11 C 33 10 33 9 34 9 z" />
  </g>
</svg>
