<?xml version="1.0" encoding="UTF-8" standalone="no"?>
<svg viewBox="0 -11 272.96 125.01" xmlns="http://www.w3.org/2000/svg" xmlns:xlink="http://www.w3.org/1999/xlink">
  <defs>
    <linearGradient id="rainbowGradient">
      <stop
         style="stop-color:#fd4141;stop-opacity:1;"
         offset="0" />
      <stop
         style="stop-color:#efe320;stop-opacity:1;"
         offset="0.16666667" />
      <stop
         style="stop-color:#10e819;stop-opacity:1;"
         offset="0.33333333" />
      <stop
         style="stop-color:#08cbe4;stop-opacity:1;"
         offset="0.5" />
      <stop
         style="stop-color:#2753f6;stop-opacity:1;"
         offset="0.66666667" />
      <stop
         style="stop-color:#ea55d3;stop-opacity:1;"
         offset="0.83333333" />
      <stop
         style="stop-color:#e10000;stop-opacity:1;"
         offset="1" />
    </linearGradient>
    <linearGradient
       xlink:href="#rainbowGradient"
       id="tiltedRainbowGradient"
       x1="36.600769"
       y1="13.982453"
       x2="43.9907"
       y2="33.093555"
       gradientUnits="userSpaceOnUse"
       gradientTransform="translate(-1.1392789,8.65852)"
       spreadMethod="reflect" />
  </defs>
  <path
     fill="#777777"
     d="m163.59,38.806c-5.985,0-10.442,2.9389-10.442,10.012,0,5.3291,2.9375,9.0284,10.12,9.0284,6.0875,0,10.222-3.5869,10.222-9.2485,0-6.416-3.7-9.7915-9.9-9.7915zm-11.97,49.94c-1.4162,1.7382-2.8275,3.585-2.8275,5.7646,0,4.3482,5.545,5.6568,13.162,5.6568,6.31,0,14.905-0.44188,14.905-6.3085,0-3.4869-4.135-3.7028-9.36-4.0304l-15.88-1.0825zm32.201-49.611c1.955,2.5029,4.025,5.9848,4.025,10.989,0,12.075-9.465,19.146-23.169,19.146-3.485,0-6.64-0.43412-8.5962-0.97712l-3.5912,5.7648,10.66,0.65125c18.822,1.1992,29.915,1.7442,29.915,16.208,0,12.514-10.985,19.581-29.915,19.581-19.69,0-27.196-5.0049-27.196-13.598,0-4.8975,2.1762-7.5025,5.9838-11.098-3.5912-1.518-4.7862-4.2362-4.7862-7.1748,0-2.395,1.195-4.5702,3.1562-6.6386,1.9575-2.065,4.1325-4.1348,6.7438-6.5274-5.33-2.6104-9.3562-8.2676-9.3562-16.319,0-12.509,8.2688-21.1,24.91-21.1,4.6788,0,7.5088,0.43062,10.011,1.0874h21.215v9.2446l-10.01,0.76175"
     id="g" />
  <path
     fill="#777777"
     d="m212.98,19.366c-6.2025,0-9.7912-3.5932-9.7912-9.7964,0-6.1954,3.5888-9.5704,9.7912-9.5704,6.31,0,9.9,3.375,9.9,9.5704,0,6.2031-3.59,9.7964-9.9,9.7964zm-14.036,65.376,0-8.5899,5.55-0.75925c1.5238-0.22075,1.74-0.5445,1.74-2.1802v-31.983c0-1.1942-0.325-1.959-1.4162-2.2828l-5.8738-2.0688,1.1962-8.8086h22.521v45.144c0,1.7438,0.105,1.9595,1.7412,2.1802l5.5488,0.75925v8.5899h-31.008"
     id="i" />
  <path
     fill="#777777"
     d="m272.97,80.526c-4.68,2.2818-11.532,4.3491-17.736,4.3491-12.945,0-17.839-5.2168-17.839-17.515v-28.5c0-0.65138,0-1.0884-0.87375-1.0884h-7.6138v-9.6816c9.5762-1.0908,13.381-5.8784,14.578-17.736h10.336v15.453c0,0.75875,0,1.0874,0.87125,1.0874h15.338v10.877h-16.209v25.999c0,6.4194,1.525,8.9194,7.3962,8.9194,3.05,0,6.2012-0.75925,8.8125-1.7392l2.94,9.5761"
     id="t" />
  <path
     style="fill:#f05133;fill-opacity:1"
     d="m 56.849609,0.08984375 c -1.8775,0 -3.756553,0.71603755 -5.189453,2.14843745 L 41.332031,12.568359 54.433594,25.669922 c 2.423984,-0.81842 5.122493,-0.529701 7.349609,0.83789 2.811296,1.621537 4.543848,4.619813 4.544922,7.865235 -0.0026,3.525141 -2.044546,6.730448 -5.238281,8.222656 l -0.002,30.947266 c 0.8315,0.41162 1.615693,0.96049 2.308593,1.65039 3.4096,3.4092 3.4096,8.932757 0,12.347657 -3.4106,3.4091 -8.93675,3.4091 -12.34375,0 -3.4101,-3.4146 -3.4101,-8.938157 0,-12.347657 0.84275,-0.84125 1.816922,-1.477496 2.857422,-1.904297 V 42.798828 c -3.461674,-1.365582 -5.740252,-4.704503 -5.75,-8.425781 0.0038,-1.358316 0.312106,-2.698496 0.902344,-3.921875 L 36.255859,17.642578 2.1484375,51.748047 c -2.8657,2.867 -2.8657,7.511953 0,10.376953 l 49.7421875,49.73828 c 2.8638,2.8648 7.509153,2.8648 10.376953,0 L 111.7793,62.359375 c 2.8648,-2.8662 2.8648,-7.513506 0,-10.378906 v -0.0039 L 62.035156,2.2382812 C 60.604056,0.8058813 58.727109,0.08984375 56.849609,0.08984375 Z M 37.121094,41.255859 c 5.571472,-0.0047 8.98049,4.087999 9.0625,8.738282 0.08201,4.650283 -1.495172,8.880439 -5.498047,15.001953 h 6.742187 v 8 H 26.322266 l 8.724609,-14.203125 c -3.720387,-0.114931 -6.631183,-3.335063 -6.726563,-8.056641 -0.09538,-4.721578 3.22931,-9.475769 8.800782,-9.480469 z m 39.582031,7.572266 c 5.017109,-3.94e-4 9.084378,4.066875 9.083984,9.083984 3.94e-4,5.017109 -4.066875,9.084379 -9.083984,9.083985 -5.017109,3.94e-4 -9.084378,-4.066876 -9.083984,-9.083985 -3.94e-4,-5.017109 4.066875,-9.084378 9.083984,-9.083984 z"
     id="square" />
  <path
     style="fill:url(#tiltedRainbowGradient);fill-opacity:1;stroke:none;stroke-opacity:1"
     d="M 44.284112,-13.548789 14.192312,37.767727 89.550331,23.939692 Z"
     id="partyHat" />
</svg>
